# xmcd CD database file
#
# Track frame offsets:
#	150
#	17480
#	32995
#	42397
#	65700
#	79305
#	93285
#	112182
#	123612
#	142777
#	158857
#	180837
#	204025
#	220622
#	236385
#	257055
#
# Disc length: 3525 seconds
#
# Revision: 0
# Processed by: cddbd v1.5.1PL0 Copyright (c) Steve Scherf et al.
# Submitted via: CDex 1.51
#
DISCID=d20dc310
DTITLE=沖縄島唄 - 沖縄島唄 -Disk2-
DYEAR=1998
DGENRE=Retro
TTITLE0=片思い
TTITLE1=親の心
TTITLE2=仲島節
TTITLE3=なりやまあやぐ
TTITLE4=池間の主
TTITLE5=古見の主
TTITLE6=伊良部トーガニ
TTITLE7=安里屋ユンタ
TTITLE8=トバルマ
TTITLE9=天底節
TTITLE10=十番口説
TTITLE11=夫婦船
TTITLE12=南洋小唄
TTITLE13=具志川ナークニ
TTITLE14=別れの煙
TTITLE15=乱れ打ち
EXTD=YEAR: 1998
EXTT0=
EXTT1=
EXTT2=
EXTT3=
EXTT4=
EXTT5=
EXTT6=
EXTT7=
EXTT8=
EXTT9=
EXTT10=
EXTT11=
EXTT12=
EXTT13=
EXTT14=
EXTT15=
PLAYORDER=
